# xmcd CD database file
#
# Track frame offsets:
#	150
#	8820
#	16656
#	23995
#	32193
#	40443
#	49105
#	56083
#	63480
#	73804
#	82219
#	88774
#	89074
#	97485
#	105985
#	114006
#	124598
#	131680
#	139519
#
# Disc length: 1970 seconds
#
# Revision: 2
# Processed by: cddbd v1.5.2PL0 Copyright (c) Steve Scherf et al.
# Submitted via: CDex 1.70beta2
#
DISCID=0a07b013
DTITLE=Kings of völlige Durchness - Mainstream Commercial Nihilism
DYEAR=2006
DGENRE=Jazz
TTITLE0=Self Inflicted Manual Breadsaw Decapitation
TTITLE1=Cumshot Corpsepaint
TTITLE2=Hacken bis zum Abkacken
TTITLE3=Battleship Ballad
TTITLE4=Die!
TTITLE5=Candleblast
TTITLE6=K.O.V.D.
TTITLE7=Wurst und Klötenfolter
TTITLE8=Fratzengeballer (As Körperteile are falling from the Sky)
TTITLE9=The Cliteaters Inc.
TTITLE10=Satan and Bitches
TTITLE11=Die Heiligen Drei Könige aus dem Morgenland
TTITLE12=Smegma Bitch
TTITLE13=I got Erection in Hell
TTITLE14=Lungenkranker SS-Typ
TTITLE15=Room to Room with the Devil
TTITLE16=Double Time
TTITLE17=ICBM Deep Throat
TTITLE18=Outro
EXTD=YEAR: 2006
EXTT0=
EXTT1=
EXTT2=
EXTT3=
EXTT4=
EXTT5=
EXTT6=
EXTT7=
EXTT8=
EXTT9=
EXTT10=
EXTT11=
EXTT12=
EXTT13=
EXTT14=
EXTT15=
EXTT16=
EXTT17=
EXTT18=
PLAYORDER=
